<svg width="80" height="105" viewBox="0 0 80 105" fill="none" xmlns="http://www.w3.org/2000/svg">
<path d="M49.5842 0.083127L25.9141 2.41784C16.5988 3.33667 9.79111 11.6267 10.7098 20.9346C11.6284 30.2422 19.9224 37.043 29.2377 36.1242L52.9097 33.7895C62.225 32.8708 69.0308 24.5806 68.1141 15.2729C67.1954 5.96509 58.8996 -0.835521 49.5842 0.083127Z" fill="#171E1B"/>
<path d="M33.577 46.1381V63.4576H47.2633V46.9609C49.9726 45.8526 52.3196 44.0153 54.0468 41.6535C55.0849 40.2335 55.8747 38.6571 56.3919 36.9919C56.6552 37.0267 56.9222 37.0446 57.1948 37.0446C60.5501 37.0446 63.2687 34.3249 63.2687 30.9701C63.2687 27.6152 60.5501 24.8956 57.1948 24.8956C57.1407 24.8956 57.0865 24.8962 57.0342 24.8977C56.4647 21.7538 54.9635 18.8283 52.6931 16.5193C49.7485 13.5253 45.7453 11.8079 41.5461 11.7371C37.3468 11.6665 33.2894 13.248 30.2441 16.1412C27.2006 19.0344 25.4156 23.0076 25.2737 27.2048C24.3308 26.5333 23.2179 26.1446 22.0621 26.0845C20.9082 26.0242 19.7599 26.2949 18.7535 26.8646C17.7471 27.4344 16.9255 28.2795 16.3822 29.3009C15.8407 30.3222 15.5998 31.477 15.6913 32.6298C15.7828 33.7826 16.2011 34.8854 16.8975 35.8085C17.594 36.7316 18.5407 37.4367 19.6236 37.8409C20.7066 38.245 21.8829 38.3316 23.0144 38.0902C24.1459 37.8488 25.184 37.2897 26.0075 36.4785C26.5639 38.5107 27.5199 40.4116 28.8213 42.0703C30.1208 43.7289 31.7378 45.1117 33.577 46.1381Z" fill="#D37000"/>
<path d="M36.7288 16.5912L32.1224 17.3825C30.9779 17.5791 30.2086 18.6664 30.4065 19.8108V19.8115C30.6026 20.9559 31.6893 21.7244 32.8339 21.5278L37.4401 20.7367C38.5847 20.5401 39.354 19.4528 39.158 18.3082V18.3077C38.96 17.1631 37.8733 16.3948 36.7288 16.5912Z" fill="#171E1B"/>
<path d="M51.5316 17.0903L47.0056 15.9263C45.8816 15.6373 44.7351 16.3145 44.4457 17.4391V17.4397C44.1563 18.5642 44.8341 19.7103 45.9581 19.9995L50.4841 21.1634C51.6082 21.4526 52.7546 20.7754 53.044 19.6508V19.6502C53.3335 18.5256 52.6557 17.3795 51.5316 17.0903Z" fill="#171E1B"/>
<path d="M36.0211 33.2305C38.8816 33.2305 41.1987 30.912 41.1987 28.0519C41.1987 25.1919 38.8816 22.8733 36.0211 22.8733C33.1606 22.8733 30.8416 25.1919 30.8416 28.0519C30.8416 30.912 33.1606 33.2305 36.0211 33.2305Z" fill="#FCFCFC"/>
<path d="M34.7195 32.8207C36.3048 32.8207 37.5875 31.5367 37.5875 29.9527C37.5875 28.369 36.3048 27.085 34.7195 27.085C33.1362 27.085 31.8516 28.369 31.8516 29.9527C31.8516 31.5367 33.1362 32.8207 34.7195 32.8207Z" fill="#171E1B"/>
<path d="M48.1056 33.2308C50.9642 33.2308 53.2832 30.9123 53.2832 28.0524C53.2832 25.1922 50.9642 22.8738 48.1056 22.8738C45.2451 22.8738 42.926 25.1922 42.926 28.0524C42.926 30.9123 45.2451 33.2308 48.1056 33.2308Z" fill="#FCFCFC"/>
<path d="M46.787 32.8383C48.3759 32.8383 49.6643 31.5504 49.6643 29.9614C49.6643 28.3725 48.3759 27.0845 46.787 27.0845C45.198 27.0845 43.9097 28.3725 43.9097 29.9614C43.9097 31.5504 45.198 32.8383 46.787 32.8383Z" fill="#171E1B"/>
<path d="M48.5927 42.2368H31.9058V50.2923H48.5927V42.2368Z" fill="#D37000"/>
<path d="M49.2903 48.6978H31.8032V55.5677H49.2903V48.6978Z" fill="#FFC634"/>
<path d="M79.5 77.2614C79.5 63.4104 68.2727 52.1821 54.4201 52.1821H25.5798C11.7292 52.1821 0.5 63.4104 0.5 77.2612V129.649H79.5V77.2614Z" fill="#00814B"/>
<path d="M40.0775 52.2533L49.69 46.7035C51.3672 45.7352 53.5118 46.3098 54.4801 47.987C55.4484 49.6642 54.8738 51.8088 53.1966 52.7771L43.5841 58.3269C41.9069 59.2952 39.7623 58.7206 38.794 57.0434C37.8257 55.3662 38.4003 53.2216 40.0775 52.2533Z" fill="#00814B"/>
<path d="M40.5163 52.2533L30.9038 46.7035C29.2266 45.7352 27.082 46.3098 26.1136 47.987C25.1453 49.6642 25.72 51.8088 27.3972 52.7771L37.0097 58.3269C38.6869 59.2952 40.8315 58.7206 41.7998 57.0434C42.7681 55.3662 42.1935 53.2216 40.5163 52.2533Z" fill="#00814B"/>
<path d="M70.2525 69.0347H18.8638C16.4919 69.0347 14.5691 70.9575 14.5691 73.3294V105.022C14.5691 107.393 16.4919 109.316 18.8638 109.316H70.2525C72.6245 109.316 74.5473 107.393 74.5473 105.022V73.3294C74.5473 70.9575 72.6245 69.0347 70.2525 69.0347Z" fill="#FCFCFC"/>
<path d="M44.599 37.1345C42.9111 38.4003 40.5155 38.0448 39.2682 36.3438L39.2346 36.2986" stroke="#171E1B" stroke-width="1.2877" stroke-linecap="round"/>
<path fill-rule="evenodd" clip-rule="evenodd" d="M22.6463 32.8348C23.0048 32.6003 23.2438 32.1947 23.2438 31.7337C23.2438 31.0081 22.6557 30.4202 21.9293 30.4202C21.2049 30.4202 20.6167 31.0081 20.6167 31.7337C20.6167 32.1947 20.8538 32.6005 21.2123 32.8348V34.0025C21.2123 34.3982 21.5335 34.719 21.9293 34.719C22.3252 34.719 22.6463 34.3982 22.6463 34.0025V32.8348Z" fill="#FCFCFC"/>
</svg>
