<svg width="95" height="104" viewBox="0 0 95 104" fill="none" xmlns="http://www.w3.org/2000/svg">
<path d="M34.7708 55.3323L45.3074 55.3323C47.5187 55.3323 49.3113 57.1249 49.3113 59.3362C49.3113 61.5475 47.5187 63.3401 45.3074 63.3401L34.7708 63.3401C32.5595 63.3401 30.7669 61.5475 30.7669 59.3362C30.7669 57.1249 32.5595 55.3323 34.7708 55.3323Z" fill="#00814B"/>
<path d="M42.7338 55.4128L56.5085 55.4128C58.7274 55.4128 60.5261 57.2116 60.5261 59.4305C60.5261 61.6493 58.7274 63.4481 56.5085 63.4481L42.7338 63.4481C40.5149 63.4481 38.7161 61.6493 38.7161 59.4305C38.7161 57.2116 40.5149 55.4128 42.7338 55.4128Z" fill="#00814B"/>
<path d="M35.4333 47.8367L54.5813 47.8367L54.5813 64.7753L35.4333 64.7753L35.4333 47.8367Z" fill="#FF835D"/>
<path d="M24.7771 22.0375C24.7771 26.4052 28.3179 29.9462 32.6858 29.9462C34.7059 29.9462 36.3435 28.3084 36.3435 26.2883V23.2594C36.3435 19.5663 33.3498 16.5725 29.6567 16.5725H24.7771V22.0375Z" fill="#A34DDE"/>
<path d="M22.5355 21.2286C22.5355 26.3955 26.724 30.5832 31.8909 30.5832C34.2805 30.5832 36.2178 28.6468 36.2178 26.257V24.1452C36.2178 20.5891 33.3351 17.7065 29.779 17.7065H22.5355V21.2286Z" fill="#A34DDE"/>
<path d="M59.4764 11.1499H30.199V39.7052C30.199 46.2924 35.5391 51.6315 42.1267 51.6315H47.5484C54.136 51.6315 59.4764 46.2924 59.4764 39.7052V11.1499Z" fill="#FF835D"/>
<path d="M59.4765 34.2822H30.1991V39.7054C30.1991 46.2926 35.5393 51.6317 42.1268 51.6317H47.5486C54.1362 51.6317 59.4765 46.2926 59.4765 39.7054V34.2822Z" fill="#A34DDE"/>
<path d="M42.3494 37.5344H49.7196C50.5182 37.5344 51.1631 38.1821 51.1631 38.9804V39.523C51.1631 41.7182 49.383 43.4985 47.1871 43.4985H44.8999C42.7508 43.4985 40.9908 41.7917 40.9257 39.6438L40.9069 39.0241C40.8822 38.2084 41.5336 37.5344 42.3494 37.5344Z" fill="#171E1B"/>
<path fill-rule="evenodd" clip-rule="evenodd" d="M41.8768 42.1053C42.7715 41.076 44.09 40.4265 45.5605 40.4265C47.2733 40.4265 48.78 41.3088 49.6506 42.6444C48.9733 43.1783 48.1176 43.4987 47.1872 43.4987H44.8998C43.6921 43.4987 42.6072 42.9595 41.8768 42.1053Z" fill="#FF2F12"/>
<path d="M59.3629 34.2655C56.0691 34.2655 53.3989 31.5954 53.3989 28.3016C53.3989 25.0078 56.0691 22.3376 59.3629 22.3376C62.6566 22.3376 65.3268 25.0078 65.3268 28.3016C65.3268 31.5954 62.6566 34.2655 59.3629 34.2655Z" fill="#FF835D"/>
<path d="M28.5723 34.2831C25.2785 34.2831 22.6084 31.6129 22.6084 28.3191C22.6084 25.0254 25.2785 22.3552 28.5723 22.3552C31.8661 22.3552 34.5363 25.0254 34.5363 28.3191C34.5363 31.6129 31.8661 34.2831 28.5723 34.2831Z" fill="#FF835D"/>
<path d="M45.7286 35.8245C43.5173 35.8245 41.7247 34.0319 41.7247 31.8206C41.7247 29.6093 43.5173 27.8167 45.7286 27.8167C47.9399 27.8167 49.7325 29.6093 49.7325 31.8206C49.7325 34.0319 47.9399 35.8245 45.7286 35.8245Z" fill="#FF835D"/>
<path d="M51.1631 32.1143C48.3684 32.1143 46.1028 29.8487 46.1028 27.054C46.1028 24.2592 48.3684 21.9937 51.1631 21.9937C53.9578 21.9937 56.2234 24.2592 56.2234 27.054C56.2234 29.8487 53.9578 32.1143 51.1631 32.1143Z" fill="#FCFCFC"/>
<path d="M52.6089 31.3913C51.0119 31.3913 49.7173 30.0967 49.7173 28.4997C49.7173 26.9028 51.0119 25.6082 52.6089 25.6082C54.2059 25.6082 55.5005 26.9028 55.5005 28.4997C55.5005 30.0967 54.2059 31.3913 52.6089 31.3913Z" fill="#171E1B"/>
<path d="M39.5968 32.1138C36.8021 32.1138 34.5365 29.8482 34.5365 27.0535C34.5365 24.2587 36.8021 21.9932 39.5968 21.9932C42.3915 21.9932 44.6571 24.2587 44.6571 27.0535C44.6571 29.8482 42.3915 32.1138 39.5968 32.1138Z" fill="#FCFCFC"/>
<path d="M41.0424 31.3911C39.4454 31.3911 38.1508 30.0965 38.1508 28.4995C38.1508 26.9025 39.4454 25.6079 41.0424 25.6079C42.6394 25.6079 43.934 26.9025 43.934 28.4995C43.934 30.0965 42.6394 31.3911 41.0424 31.3911Z" fill="#171E1B"/>
<path d="M51.4062 15.2792L55.7487 16.4428C56.8092 16.7269 57.4386 17.817 57.1544 18.8775C56.8703 19.938 55.7802 20.5674 54.7197 20.2832L50.3772 19.1196C49.3167 18.8355 48.6873 17.7454 48.9715 16.6849C49.2556 15.6244 50.3457 14.995 51.4062 15.2792Z" fill="#171E1B"/>
<path d="M35.5576 17.1652L39.9001 16.0016C40.9606 15.7174 42.0507 16.3468 42.3348 17.4073L42.3348 17.4073C42.619 18.4678 41.9896 19.5579 40.9291 19.8421L36.5866 21.0056C35.5261 21.2898 34.436 20.6604 34.1519 19.5999L34.1519 19.5999C33.8677 18.5394 34.4971 17.4493 35.5576 17.1652Z" fill="#171E1B"/>
<path d="M62.798 14.4579C62.798 6.47309 56.3251 0 48.3401 0H38.1762C35.7135 0 33.717 1.99647 33.717 4.45911C33.717 10.1432 38.325 14.7513 44.0091 14.7513H62.798V14.4579Z" fill="#A34DDE"/>
<path d="M22.5355 13.7821C22.5355 8.61524 26.724 4.42676 31.8909 4.42676C34.2805 4.42676 36.2178 6.3639 36.2178 8.75354V11.0667C36.2178 14.7337 33.2451 17.7066 29.5779 17.7066H22.5355V13.7821Z" fill="#A34DDE"/>
<path d="M28.3459 61L59.6535 61C75.3087 61 87.9997 74.303 87.9997 90.713L87.9999 104L-0.000183531 104L-0.000252064 90.713C-0.000251902 74.303 12.6908 61 28.3459 61Z" fill="#00814B"/>
</svg>
