<svg width="94" height="101" viewBox="0 0 94 101" fill="none" xmlns="http://www.w3.org/2000/svg">
<path d="M20.6759 23.9298C20.6759 10.7137 31.3896 0 44.6058 0C57.8218 0 68.5355 10.7137 68.5355 23.9298V54.9876H35.0383C27.1062 54.9876 20.6759 48.5574 20.6759 40.6252V23.9298Z" fill="#171E1B"/>
<path d="M29.1862 36.3197C33.0995 36.3197 36.2718 33.1474 36.2718 29.2342C36.2718 25.321 33.0995 22.1487 29.1862 22.1487C25.273 22.1487 22.1007 25.321 22.1007 29.2342C22.1007 33.1474 25.273 36.3197 29.1862 36.3197Z" fill="#FF9131"/>
<mask id="mask0_146_330" style="mask-type:luminance" maskUnits="userSpaceOnUse" x="29" y="11" width="35" height="41">
<path d="M29.8542 11.022H63.7074V34.2468C63.7074 43.5951 56.129 51.1733 46.7808 51.1733C37.4325 51.1733 29.8542 43.5951 29.8542 34.2468V11.022Z" fill="white"/>
</mask>
<g mask="url(#mask0_146_330)">
<path d="M29.8542 11.022H63.7074V34.2468C63.7074 43.5951 56.129 51.1733 46.7808 51.1733C37.4325 51.1733 29.8542 43.5951 29.8542 34.2468V11.022Z" fill="#FF9131"/>
<path d="M29.4893 22.1602C47.9684 22.1602 62.9488 7.17986 62.9488 -11.2993C62.9488 -29.7785 47.9684 -44.7588 29.4893 -44.7588C11.0101 -44.7588 -3.97021 -29.7785 -3.97021 -11.2993C-3.97021 7.17986 11.0101 22.1602 29.4893 22.1602Z" fill="#171E1B"/>
<path d="M79.0594 29.9167C93.6254 29.9167 105.433 18.1086 105.433 3.54268C105.433 -11.0233 93.6254 -22.8313 79.0594 -22.8313C64.4935 -22.8313 52.6854 -11.0233 52.6854 3.54268C52.6854 18.1086 64.4935 29.9167 79.0594 29.9167Z" fill="#171E1B"/>
<path d="M44.0253 37.9334C45.9057 39.3437 48.5757 38.9477 49.9657 37.0522L50.0025 37.002" stroke="#171E1B" stroke-width="1.24202" stroke-linecap="round"/>
</g>
<path d="M55.1273 42.5132H37.0198V55.1097H55.1273V42.5132Z" fill="#FF9131"/>
<path d="M39.3015 33.0657C42.3451 33.0657 44.8125 30.5983 44.8125 27.5547C44.8125 24.511 42.3451 22.0437 39.3015 22.0437C36.2579 22.0437 33.7905 24.511 33.7905 27.5547C33.7905 30.5983 36.2579 33.0657 39.3015 33.0657Z" fill="#FCFCFC"/>
<path d="M37.0162 30.0619C38.7554 30.0619 40.1653 28.652 40.1653 26.9128C40.1653 25.1736 38.7554 23.7637 37.0162 23.7637C35.277 23.7637 33.8671 25.1736 33.8671 26.9128C33.8671 28.652 35.277 30.0619 37.0162 30.0619Z" fill="#171E1B"/>
<path d="M64.42 38.1652C68.3332 38.1652 71.5055 34.9929 71.5055 31.0797C71.5055 27.1664 68.3332 23.9941 64.42 23.9941C60.5068 23.9941 57.3345 27.1664 57.3345 31.0797C57.3345 34.9929 60.5068 38.1652 64.42 38.1652Z" fill="#FF9131"/>
<path d="M51.8983 33.0657C54.9419 33.0657 57.4093 30.5983 57.4093 27.5547C57.4093 24.511 54.9419 22.0437 51.8983 22.0437C48.8547 22.0437 46.3873 24.511 46.3873 27.5547C46.3873 30.5983 48.8547 33.0657 51.8983 33.0657Z" fill="#FCFCFC"/>
<path d="M49.6126 30.0619C51.3518 30.0619 52.7618 28.652 52.7618 26.9128C52.7618 25.1736 51.3518 23.7637 49.6126 23.7637C47.8734 23.7637 46.4635 25.1736 46.4635 26.9128C46.4635 28.652 47.8734 30.0619 49.6126 30.0619Z" fill="#171E1B"/>
<path d="M56.5273 16.5142L51.8118 15.4381C50.6505 15.1731 49.4941 15.8997 49.2291 17.0611C48.9641 18.2224 49.6907 19.3788 50.8521 19.6438L55.5676 20.7199C56.7289 20.9849 57.8853 20.2583 58.1503 19.0969C58.4153 17.9356 57.6887 16.7792 56.5273 16.5142Z" fill="#171E1B"/>
<mask id="mask1_146_330" style="mask-type:luminance" maskUnits="userSpaceOnUse" x="0" y="54" width="92" height="48">
<path d="M0 92.5695C0 71.808 16.8308 54.9773 37.5926 54.9773H53.852C74.6138 54.9773 91.4449 71.808 91.4449 92.5695V101.113H0V92.5695Z" fill="white"/>
</mask>
<g mask="url(#mask1_146_330)">
<path d="M0 92.5695C0 71.808 16.8308 54.9773 37.5926 54.9773H53.852C74.6138 54.9773 91.4449 71.808 91.4449 92.5695V101.113H0V92.5695Z" fill="#00814B"/>
<path d="M37.0198 54.9773H55.2534V60.5026C55.2534 65.5377 51.1717 69.6194 46.1366 69.6194C41.1015 69.6194 37.0198 65.5377 37.0198 60.5026V54.9773Z" fill="#FFE895"/>
</g>
<path fill-rule="evenodd" clip-rule="evenodd" d="M79.9962 89.1523C78.429 89.1523 77.1586 90.4334 77.1586 92.0145C77.1586 93.5943 78.429 94.8754 79.9962 94.8754C78.429 94.8754 77.1586 96.1577 77.1586 97.7375C77.1586 99.3185 78.429 100.6 79.9962 100.6C78.429 100.6 77.1586 101.881 77.1586 103.462C77.1586 105.042 78.429 106.324 79.9962 106.324H86.8305C87.1434 106.372 87.4634 106.397 87.7893 106.397C91.2193 106.397 94 103.615 94 100.185V95.4067C94 92.0794 91.3846 89.3637 88.0974 89.2031C87.9239 89.1701 87.7456 89.1523 87.5637 89.1523H79.9962Z" fill="#FF9131"/>
<path fill-rule="evenodd" clip-rule="evenodd" d="M25.386 89.1523C26.9532 89.1523 28.2235 90.4334 28.2235 92.0145C28.2235 93.5943 26.9532 94.8754 25.386 94.8754C26.9532 94.8754 28.2235 96.1577 28.2235 97.7375C28.2235 99.3185 26.9532 100.6 25.386 100.6C26.9532 100.6 28.2235 101.881 28.2235 103.462C28.2235 105.042 26.9532 106.324 25.386 106.324H18.2332C17.9207 106.372 17.6008 106.397 17.2749 106.397C13.8442 106.397 11.0632 103.616 11.0632 100.185V95.4067C11.0632 91.9767 13.8442 89.1948 17.2749 89.1948C17.2913 89.1948 17.3077 89.196 17.3242 89.196C17.4849 89.1677 17.6502 89.1523 17.819 89.1523H25.386Z" fill="#FF9131"/>
</svg>
