<svg width="105" height="104" viewBox="0 0 105 104" fill="none" xmlns="http://www.w3.org/2000/svg">
<path d="M31.3188 21.9364C31.3188 10.1652 40.8406 0.622803 52.5861 0.622803C64.3318 0.622803 73.8535 10.1652 73.8535 21.9364V38.3821C73.8535 40.7071 71.9729 42.5917 69.653 42.5917H35.5193C33.1994 42.5917 31.3188 40.7071 31.3188 38.3821V21.9364Z" fill="#FCFCFC"/>
<path d="M31.3188 31.9765C31.3188 20.2053 40.8406 10.6628 52.5861 10.6628C64.3318 10.6628 73.8535 20.2053 73.8535 31.9765V46.201C73.8535 48.3892 72.0835 50.1631 69.9001 50.1631H35.2722C33.0888 50.1631 31.3188 48.3892 31.3188 46.201V31.9765Z" fill="#FCFCFC"/>
<path d="M70.4588 23.5622C70.5467 23.5588 70.6346 23.557 70.723 23.557C71.6126 23.557 72.4936 23.7326 73.3154 24.0737C74.1373 24.4149 74.8841 24.9151 75.5133 25.5454C76.1423 26.1759 76.6413 26.9243 76.9818 27.7481C77.3222 28.5717 77.4974 29.4546 77.4974 30.3461C77.4974 31.2377 77.3222 32.1205 76.9818 32.9442C76.6413 33.768 76.1423 34.5164 75.5133 35.1469C74.8841 35.7773 74.1373 36.2774 73.3154 36.6185C72.4936 36.9598 71.6126 37.1354 70.723 37.1354C70.5774 37.1354 70.4328 37.1307 70.2892 37.1215C69.8344 39.5855 68.8687 41.9264 67.4547 43.993C66.0405 46.0596 64.2095 47.8058 62.0799 49.1187V59.0311C62.0799 63.9591 58.0938 64.262 53.1765 64.262C48.2592 64.262 44.2736 63.9591 44.2736 59.0311V49.6397C41.7559 48.2832 39.5997 46.3411 37.986 43.9765C36.3723 41.6118 35.3483 38.8938 34.9998 36.0505C33.9979 36.8006 32.8084 37.2581 31.563 37.3725C30.3175 37.4868 29.0649 37.2533 27.9437 36.698C26.8225 36.1426 25.8767 35.2871 25.2107 34.2262C24.5449 33.1651 24.1852 31.9402 24.1713 30.6868C24.1575 29.4336 24.4902 28.2009 25.1324 27.1255C25.7747 26.05 26.7014 25.1737 27.81 24.5935C28.9187 24.0134 30.1659 23.7523 31.4136 23.8389C32.6611 23.9256 33.8606 24.3566 34.8788 25.0845C35.0302 20.5767 36.8744 16.2924 40.0424 13.0888C43.2103 9.88523 47.4685 7.9985 51.965 7.8061C56.4614 7.6137 60.8645 9.12988 64.2934 12.0512C67.7223 14.9726 69.9241 19.0838 70.4584 23.5622H70.4588Z" fill="#FF9131"/>
<path d="M0.959473 83.5082C0.959473 68.6752 12.9578 56.6509 27.7584 56.6509H77.5694C92.3699 56.6509 104.368 68.6754 104.368 83.5082V142.769H0.959473V83.5082Z" fill="#FEC633"/>
<path d="M44.0002 56.5483H62.3329V61.3253C62.3329 66.3987 58.229 70.5115 53.1666 70.5115C48.1042 70.5115 44.0002 66.3987 44.0002 61.3253V56.5483Z" fill="#A34DDD"/>
<path d="M38.8672 111.667H67.4662V84.8423C67.4662 76.9277 61.0641 70.5117 53.1666 70.5117C45.2693 70.5117 38.8672 76.9277 38.8672 84.8423V111.667Z" fill="#A34DDD"/>
<path d="M56.3551 4.4759C62.8706 4.81895 65.8394 8.52609 70.1497 13.027C68.9036 13.1818 68.5247 12.1295 67.2294 12.132C58.4053 12.4944 57.2393 11.5447 52.6042 7.65586C50.3659 15.5645 45.5634 23.9074 33.4629 23.5012C34.7837 11.1926 44.9953 3.87838 56.3551 4.4759Z" fill="#FCFCFC"/>
<path d="M57.6726 14.9599L62.7341 15.9142C63.9917 16.1512 64.8195 17.3653 64.583 18.6256L64.5828 18.6262C64.3462 19.8866 63.1349 20.7162 61.8773 20.479L56.8157 19.5247C55.558 19.2876 54.7302 18.0736 54.9669 16.8133L54.967 16.8126C55.2036 15.5523 56.4149 14.7228 57.6726 14.9599Z" fill="#FCFCFC"/>
<path d="M53.8214 95.081C53.8214 91.412 51.5016 88.147 48.0427 86.9467L24.8366 78.8932C24.2485 78.6891 23.5958 78.8395 23.1558 79.2805L20.0566 82.3865C19.7518 82.6919 19.5806 83.1062 19.5806 83.5381V121.017C19.5806 121.917 20.3082 122.646 21.2055 122.646H38.3492C38.534 122.646 38.7173 122.677 38.8915 122.739L51.6541 127.268C52.7116 127.642 53.8214 126.856 53.8214 125.733V95.081Z" fill="#FCFCFC"/>
<path d="M53.9377 95.5045C53.9377 95.109 53.689 94.7573 53.3173 94.6259L17.5676 82.0201C16.9636 81.8071 16.3308 82.2563 16.3308 82.898V120.01C16.3308 120.404 16.5795 120.756 16.9512 120.887L52.701 133.493C53.305 133.706 53.9377 133.257 53.9377 132.616V95.5045Z" fill="#00814B"/>
<path d="M53.3574 95.081C53.3574 91.412 55.6772 88.147 59.1361 86.9467L82.3422 78.8932C82.9303 78.6891 83.5829 78.8395 84.023 79.2805L87.1222 82.3866C87.427 82.6919 87.5982 83.1062 87.5982 83.5381V121.017C87.5982 121.917 86.8706 122.646 85.9731 122.646H68.8296C68.6448 122.646 68.4614 122.677 68.2873 122.739L55.5247 127.268C54.4672 127.642 53.3574 126.856 53.3574 125.733V95.081Z" fill="#FCFCFC"/>
<path d="M53.2412 95.5047C53.2412 95.1092 53.4899 94.7575 53.8616 94.6261L89.6111 82.0204C90.2158 81.8073 90.8485 82.2564 90.8485 82.8981V120.01C90.8485 120.404 90.5996 120.756 90.228 120.887L54.478 133.494C53.874 133.707 53.2412 133.258 53.2412 132.616V95.5047Z" fill="#00814B"/>
<path d="M60.4348 35.8613C58.7634 35.8613 57.145 35.397 55.7551 34.519C54.6291 33.8093 53.7012 32.8605 53.0348 31.7483C52.3972 32.858 51.5085 33.8044 50.4323 34.515C49.0978 35.3953 47.5444 35.8613 45.9412 35.8613C44.8352 35.8613 43.763 35.6441 42.7532 35.2151C41.778 34.8015 40.9022 34.2092 40.15 33.4543C39.3985 32.6996 38.8082 31.8207 38.3952 30.8422C37.9685 29.8282 37.752 28.7523 37.752 27.6426C37.752 26.4757 38.0022 25.3145 38.4786 24.2571C37.6172 23.8394 37.0479 22.9566 37.0479 21.9692C37.0479 20.5674 38.1819 19.427 39.5758 19.427H44.5297C44.6988 19.427 44.8632 19.4439 45.0309 19.4777C45.3356 19.4439 45.6412 19.427 45.9412 19.427C47.5444 19.427 49.0978 19.893 50.4323 20.7734C51.5085 21.484 52.3972 22.4295 53.0348 23.5384C53.7012 22.4271 54.63 21.4791 55.7551 20.7694C57.1457 19.8914 58.7643 19.427 60.4348 19.427C60.8165 19.427 61.2047 19.452 61.5897 19.5011C61.7886 19.452 61.9939 19.427 62.2008 19.427H67.1515C68.5478 19.427 69.6842 20.5674 69.6842 21.9692C69.6842 22.5445 69.4869 23.1079 69.1284 23.5553C68.8838 23.8603 68.5718 24.1042 68.2214 24.2683C68.7218 25.3354 68.9752 26.4685 68.9752 27.6426C68.9752 28.7539 68.7482 29.8331 68.3008 30.8478C67.8701 31.8272 67.2525 32.7059 66.4666 33.4608C65.6822 34.2141 64.7695 34.8048 63.7527 35.2175C62.7012 35.6448 61.5848 35.8613 60.4348 35.8613Z" fill="#00814B"/>
<path d="M60.4353 35.4494C64.924 35.4494 68.565 31.9545 68.565 27.6427C68.565 26.3431 68.2299 25.1183 67.6444 24.0351C68.5763 23.8162 69.2741 22.9753 69.2741 21.9694C69.2741 20.7928 68.3245 19.8392 67.152 19.8392H62.2012C61.9967 19.8392 61.8027 19.8674 61.6167 19.9205C61.2293 19.8674 60.8371 19.8392 60.4353 19.8392C57.1399 19.8392 54.3032 21.7207 53.028 24.4246C51.8058 21.7207 49.091 19.8392 45.9417 19.8392C45.6264 19.8392 45.3169 19.8585 45.0106 19.8947C44.8542 19.8585 44.6953 19.8392 44.5302 19.8392H39.5763C38.4053 19.8392 37.4589 20.7928 37.4589 21.9694C37.4589 22.9599 38.1335 23.7905 39.0461 24.0302C38.4831 25.1086 38.1631 26.3407 38.1631 27.6427C38.1631 31.9545 41.6446 35.4494 45.9417 35.4494C49.091 35.4494 51.8058 33.5688 53.028 30.8625C54.3032 33.5688 57.1399 35.4494 60.4353 35.4494ZM60.4353 36.2735C58.6869 36.2735 56.9931 35.7875 55.5367 34.8685C54.5471 34.2432 53.7017 33.4425 53.0425 32.5114C52.4113 33.4376 51.6045 34.235 50.6589 34.8596C49.257 35.7842 47.6259 36.2735 45.9417 36.2735C44.7812 36.2735 43.6543 36.045 42.5933 35.5951C41.5692 35.1605 40.6493 34.5377 39.8602 33.7458C39.071 32.9531 38.451 32.0301 38.018 31.0025C37.5697 29.9378 37.3419 28.8072 37.3419 27.6427C37.3419 26.5434 37.5536 25.4482 37.9586 24.4334C37.151 23.8967 36.6377 22.9809 36.6377 21.9694C36.6377 20.3406 37.9562 19.0151 39.5763 19.0151H44.5302C44.7026 19.0151 44.8758 19.0305 45.0482 19.0619C45.3474 19.0305 45.6473 19.0151 45.9417 19.0151C47.625 19.0151 49.2563 19.5045 50.6589 20.4291C51.6045 21.0536 52.4113 21.8511 53.0425 22.7765C53.7017 21.8462 54.5471 21.0455 55.5367 20.4202C56.9931 19.5012 58.6869 19.0151 60.4353 19.0151C60.8098 19.0151 61.1899 19.0385 61.5677 19.0835C61.7754 19.0385 61.9871 19.0151 62.2012 19.0151H67.152C68.7752 19.0151 70.0953 20.3406 70.0953 21.9694C70.0953 22.6381 69.8659 23.2931 69.4489 23.8137C69.2507 24.0616 69.0133 24.275 68.7495 24.4456C69.1722 25.4635 69.3864 26.5354 69.3864 27.6427C69.3864 28.812 69.1473 29.9467 68.6774 31.0146C68.2242 32.0438 67.5762 32.9669 66.751 33.7587C65.9289 34.5482 64.9722 35.167 63.9072 35.6C62.8068 36.0466 61.6383 36.2735 60.4353 36.2735Z" fill="#00814B"/>
<path d="M59.9253 33.6838C63.1149 33.6838 65.7004 31.0926 65.7004 27.8961C65.7004 24.6996 63.1149 22.1084 59.9253 22.1084C56.7358 22.1084 54.1501 24.6996 54.1501 27.8961C54.1501 31.0926 56.7358 33.6838 59.9253 33.6838Z" fill="#FCFCFC"/>
<path d="M57.6789 32.6229C59.3713 32.6229 60.7434 31.205 60.7434 29.4559C60.7434 27.7068 59.3713 26.2888 57.6789 26.2888C55.9865 26.2888 54.6145 27.7068 54.6145 29.4559C54.6145 31.205 55.9865 32.6229 57.6789 32.6229Z" fill="#171E1B"/>
<path d="M46.4502 33.6838C49.6398 33.6838 52.2255 31.0926 52.2255 27.8961C52.2255 24.6996 49.6398 22.1084 46.4502 22.1084C43.2607 22.1084 40.675 24.6996 40.675 27.8961C40.675 31.0926 43.2607 33.6838 46.4502 33.6838Z" fill="#FCFCFC"/>
<path d="M44.3684 32.6229C46.1137 32.6229 47.5286 31.205 47.5286 29.4559C47.5286 27.7068 46.1137 26.2888 44.3684 26.2888C42.6231 26.2888 41.2083 27.7068 41.2083 29.4559C41.2083 31.205 42.6231 32.6229 44.3684 32.6229Z" fill="#171E1B"/>
<path d="M50.4351 38.6199C52.2946 40.0177 54.9351 39.6251 56.3096 37.7467L56.3461 37.6968" stroke="#171E1B" stroke-width="3" stroke-linecap="round"/>
<path fill-rule="evenodd" clip-rule="evenodd" d="M24.8663 94.1465C26.7654 94.1465 28.305 95.7029 28.305 97.622C28.305 99.5411 26.7654 101.098 24.8663 101.098C26.7654 101.098 28.305 102.654 28.305 104.573C28.305 106.493 26.7654 108.049 24.8663 108.049C26.7654 108.049 28.305 109.605 28.305 111.524C28.305 113.445 26.7654 115.001 24.8663 115.001H16.1975C15.8192 115.059 15.4316 115.09 15.037 115.09C10.8798 115.09 7.50952 111.712 7.50952 107.546V101.743C7.50952 97.5758 10.8798 94.1988 15.037 94.1988C15.0572 94.1988 15.0773 94.1988 15.0974 94.1988C15.2919 94.1647 15.4921 94.1465 15.6965 94.1465H24.8663Z" fill="#FF9131"/>
<path fill-rule="evenodd" clip-rule="evenodd" d="M80.5903 94.1465C78.6911 94.1465 77.1516 95.7029 77.1516 97.622C77.1516 99.5411 78.6911 101.098 80.5903 101.098C78.6911 101.098 77.1516 102.654 77.1516 104.573C77.1516 106.493 78.6911 108.049 80.5903 108.049C78.6911 108.049 77.1516 109.605 77.1516 111.524C77.1516 113.445 78.6911 115.001 80.5903 115.001H89.2589C89.6377 115.059 90.0251 115.09 90.4198 115.09C94.5775 115.09 97.9471 111.712 97.9471 107.546V101.743C97.9471 97.5758 94.5775 94.1988 90.4198 94.1988C90.3991 94.1988 90.3797 94.1988 90.359 94.1988C90.1648 94.1647 89.9644 94.1465 89.7604 94.1465H80.5903Z" fill="#FF9131"/>
</svg>
